<?xml version="1.0" encoding="utf-8"?>
<!-- Generator: Adobe Illustrator 21.1.0, SVG Export Plug-In . SVG Version: 6.00 Build 0)  -->
<svg version="1.1" id="Layer_1" xmlns="http://www.w3.org/2000/svg" xmlns:xlink="http://www.w3.org/1999/xlink" x="0px" y="0px"
	 viewBox="0 0 100 100" style="enable-background:new 0 0 100 100;" xml:space="preserve">
<style type="text/css">
	.st0{fill:#F6C6A8;}
	.st1{fill:#CD5430;}
</style>
<path class="st0" d="M95.3,22.8L77.2,4.7c-1.1-1.1-2.8-1.9-4.4-1.9v30.3c0,2.5-1.9,4.4-4.7,4.4H21.9c-2.5,0-4.4-1.9-4.4-4.4V2.8
	h-6.7c-4.4,0-8.1,3.6-8.1,8.1v80c0,3.6,2.8,6.4,6.4,6.4h81.7c3.6,0,6.4-2.8,6.4-6.4V27.2C97.2,25.6,96.7,23.9,95.3,22.8z M86.9,82.5
	c0,2.2-1.9,4.2-4.2,4.2H17.2c-2.2,0-4.2-1.9-4.2-4.2V57.8c0-2.2,1.9-4.2,4.2-4.2h65.3c2.2,0,4.2,1.9,4.2,4.2L86.9,82.5z"/>
<path class="st0" d="M63.9,2.8H51.9V25h11.9V2.8z"/>
<path class="st0" d="M77.8,64.2H21.9c-1.1,0-2.2-0.8-2.2-2.2c0-1.4,0.8-2.2,2.2-2.2h55.8c1.1,0,2.2,0.8,2.2,2.2
	C80,63.3,78.9,64.2,77.8,64.2z"/>
<path class="st0" d="M77.8,72.2H21.9c-1.1,0-2.2-0.8-2.2-2.2s0.8-2.2,2.2-2.2h55.8c1.1,0,2.2,0.8,2.2,2.2S78.9,72.2,77.8,72.2z"/>
<path class="st1" d="M97.2,20.8L79.2,2.8c-1.7-1.7-3.9-2.5-6.4-2.8h-0.3h-2.8H28.1c-1.7,0-2.8,1.1-2.8,2.8c0,1.7,1.1,2.8,2.8,2.8
	h41.7v27.5c0,0.8-0.8,1.7-1.7,1.7H21.9c-0.8,0-1.7-0.8-1.7-1.7V0h-9.4C4.7,0,0,4.7,0,10.8v80c0,5,4.2,9.2,9.2,9.2h81.7
	c5,0,9.2-4.2,9.2-9.2V27.2C100,25,99.2,22.5,97.2,20.8z M94.4,90.8c0,1.9-1.7,3.6-3.6,3.6H9.2c-1.9,0-3.6-1.7-3.6-3.6v-80
	c0-3.1,2.2-5.3,5.3-5.3h3.9v27.5c0,4.2,3.3,7.2,7.2,7.2h46.1c4.2,0,7.2-3.3,7.2-7.2V6.7l18.1,18.1c0.8,0.8,1.1,1.7,1.1,2.5V90.8z"/>
<path class="st1" d="M82.8,50.8H17.2c-3.9,0-6.9,3.1-6.9,6.9v24.7c0,3.9,3.1,6.9,6.9,6.9h65.3c3.9,0,6.9-3.1,6.9-6.9V57.8
	C89.7,53.9,86.4,50.8,82.8,50.8z M84.2,82.5c0,0.8-0.6,1.4-1.4,1.4H17.2c-0.8,0-1.4-0.6-1.4-1.4V57.8c0-0.8,0.6-1.4,1.4-1.4h65.3
	c0.8,0,1.4,0.6,1.4,1.4L84.2,82.5z"/>
</svg>
