<svg width="100" height="100" viewBox="0 0 100 100" fill="none" xmlns="http://www.w3.org/2000/svg">
<g clip-path="url(#clip0_101_1803)">
<path d="M31.9444 63.6111C23.8889 63.6111 15.5556 60.5556 9.44445 54.4444C3.33333 48.3333 0 40.5556 0 31.9444C0 23.3333 3.33333 15.5556 9.44445 9.44444C21.9444 -3.05556 41.9444 -3.05556 54.4444 9.44444C60.5556 15.5556 63.8889 23.3333 63.8889 31.9444C63.8889 40.5556 60.5556 48.3333 54.4444 54.4444C48.0556 60.5556 40 63.6111 31.9444 63.6111ZM31.9444 5.55555C25 5.55555 18.3333 8.05555 13.3333 13.3333C8.33333 18.3333 5.55556 24.7222 5.55556 31.9444C5.55556 38.8889 8.33333 45.5556 13.3333 50.5556C23.6111 60.8333 40.2778 60.8333 50.5556 50.5556C55.5556 45.5556 58.3333 38.8889 58.3333 31.9444C58.3333 25 55.5556 18.3333 50.5556 13.3333C45.2778 8.05555 38.6111 5.55555 31.9444 5.55555Z" fill="#CD5430"/>
<path d="M46.6668 20C46.1112 20 45.5557 19.7222 45.2779 19.4444C41.389 15.5556 35.8334 13.3333 30.2779 13.3333C29.1668 13.3333 28.0557 12.5 28.0557 11.3889C28.0557 10.2778 28.889 9.16667 30.2779 9.16667C36.9446 9.16667 43.3334 11.9444 48.3334 16.6667C49.1668 17.5 49.1668 18.8889 48.3334 19.7222C47.7779 19.7222 47.2223 20 46.6668 20Z" fill="#F6C6A8"/>
<path d="M92.2223 100C90.2779 100 88.3334 99.1667 86.6668 97.7778L67.7779 78.8889C66.389 77.5 65.5557 75.5556 65.5557 73.3333C65.5557 71.1111 66.389 69.1667 67.7779 67.7778C70.8334 64.7222 75.8334 64.7222 78.889 67.7778L97.7779 86.6667C100.833 89.7222 100.833 94.7222 97.7779 97.7778C96.1112 99.1667 94.1668 100 92.2223 100ZM73.0557 70.8333C72.5001 70.8333 71.9446 71.1111 71.389 71.3889C70.8334 71.9444 70.8334 72.5 70.8334 73.0556C70.8334 73.6111 71.1112 74.1667 71.389 74.7222L90.2779 93.6111C91.1112 94.4444 92.5001 94.4444 93.6112 93.6111C94.4446 92.7778 94.4446 91.3889 93.6112 90.2778L74.7223 71.3889C74.4446 71.1111 73.6112 70.8333 73.0557 70.8333Z" fill="#CD5430"/>
<path d="M69.4444 72.2222C68.6111 72.2222 68.0555 71.9444 67.4999 71.3889L58.0555 61.9444C56.9444 60.8333 56.9444 59.1667 58.0555 58.0555C59.1666 56.9444 60.8333 56.9444 61.9444 58.0555L71.3888 67.5C72.5 68.6111 72.5 70.2778 71.3888 71.3889C71.1111 71.9444 70.2777 72.2222 69.4444 72.2222Z" fill="#CD5430"/>
</g>
<defs>
<clipPath id="clip0_101_1803">
<rect width="100" height="100" fill="white"/>
</clipPath>
</defs>
</svg>
