<svg width="100" height="100" viewBox="0 0 100 100" fill="none" xmlns="http://www.w3.org/2000/svg">
<g clip-path="url(#clip0_101_1784)">
<path d="M31.9443 63.6111C23.8888 63.6111 15.5554 60.5556 9.44433 54.4444C-3.05566 41.9444 -3.05566 21.9444 9.44433 9.44444C21.9443 -3.05556 41.9443 -3.05556 54.4443 9.44444C66.9443 21.9444 66.9443 41.9444 54.4443 54.4444C48.0554 60.5556 39.9999 63.6111 31.9443 63.6111ZM31.9443 5.55555C24.9999 5.55555 18.3332 8.05555 13.3332 13.3333C3.05545 23.6111 3.05545 40.2778 13.3332 50.5556C23.611 60.8333 40.2777 60.8333 50.5554 50.5556C60.8332 40.2778 60.8332 23.6111 50.5554 13.3333C45.2777 8.05555 38.611 5.55555 31.9443 5.55555Z" fill="#CD5430"/>
<path d="M46.6665 20C46.111 20 45.5554 19.7222 45.2776 19.4444C41.3888 15.5556 35.8332 13.3333 30.2776 13.3333C29.1665 13.3333 28.0554 12.5 28.0554 11.1111C28.0554 9.72222 28.8888 8.88889 30.2776 8.88889C36.9443 8.88889 43.3332 11.6667 48.3332 16.3889C49.1665 17.2222 49.1665 18.6111 48.3332 19.4444C47.7776 19.7222 47.2221 20 46.6665 20Z" fill="#F6C6A8"/>
<path d="M92.2222 100C90.2778 100 88.3333 99.1667 86.6666 97.7778L67.7778 78.8889C64.7222 75.8333 64.7222 70.8333 67.7778 67.7778C70.8333 64.7222 75.8333 64.7222 78.8889 67.7778L97.7778 86.6667C100.833 89.7222 100.833 94.7222 97.7778 97.7778C96.1111 99.1667 94.1666 100 92.2222 100ZM73.0555 70.8333C72.5 70.8333 71.9444 71.1111 71.3889 71.3889C70.5555 72.2222 70.5555 73.6111 71.3889 74.7222L90.2778 93.6111C91.1111 94.4444 92.5 94.4444 93.6111 93.6111C94.4444 92.7778 94.4444 91.3889 93.6111 90.2778L74.7222 71.3889C74.4444 71.1111 73.6111 70.8333 73.0555 70.8333Z" fill="#CD5430"/>
<path d="M69.4444 72.2222C68.6111 72.2222 68.0555 71.9444 67.4999 71.3889L58.0555 61.9444C56.9444 60.8333 56.9444 59.1667 58.0555 58.0555C59.1666 56.9444 60.8333 56.9444 61.9444 58.0555L71.3888 67.5C72.5 68.6111 72.5 70.2778 71.3888 71.3889C71.1111 71.9444 70.2777 72.2222 69.4444 72.2222Z" fill="#CD5430"/>
<path d="M31.9443 47.2222C30.2776 47.2222 29.1665 46.1111 29.1665 44.4444V19.4444C29.1665 17.7778 30.2776 16.6667 31.9443 16.6667C33.6109 16.6667 34.7221 17.7778 34.7221 19.4444V44.4444C34.7221 45.8333 33.3332 47.2222 31.9443 47.2222Z" fill="#CD5430"/>
<path d="M44.4443 34.7222H19.4443C17.7776 34.7222 16.6665 33.6111 16.6665 31.9445C16.6665 30.2778 17.7776 29.1667 19.4443 29.1667H44.4443C46.1109 29.1667 47.2221 30.2778 47.2221 31.9445C47.2221 33.6111 45.8332 34.7222 44.4443 34.7222Z" fill="#CD5430"/>
</g>
<defs>
<clipPath id="clip0_101_1784">
<rect width="100" height="100" fill="white"/>
</clipPath>
</defs>
</svg>
